# xmcd
#
# Track frame offsets:
#	150
#	19892
#	34510
#	50222
#	73236
#	85876
#	101774
#	125421
#	146797
#	165296
#	191205
#	214249
#
# Disc length: 3141 seconds
#
# Revision: 0
# Processed by: cddbd v1.5.2PL0 Copyright (c) Steve Scherf et al.
# Submitted via: audiograbber 1.83.01
#
DISCID=b40c430c
DTITLE=Meena - Feel Me 
DYEAR=2011
DGENRE=Rhythm and Blues
TTITLE0=Movin' On
TTITLE1=I Was Made For Loving You
TTITLE2=Stay Away From Me Baby
TTITLE3=If I Meet You One More Time
TTITLE4=If You Had A Diamond
TTITLE5=Beg Like A Sinner
TTITLE6=Feel Me
TTITLE7=Come To Mama
TTITLE8=My Empty Bed
TTITLE9=Lord Have Mercy
TTITLE10=Singing Songs
TTITLE11=My Performance Is Over
EXTD=
EXTT0=
EXTT1=
EXTT2=
EXTT3=
EXTT4=
EXTT5=
EXTT6=
EXTT7=
EXTT8=
EXTT9=
EXTT10=
EXTT11=
PLAYORDER=
